<svg xmlns="http://www.w3.org/2000/svg" width="28" height="32.001" viewBox="0 0 28 32.001">
  <g id="CatalystLogo_H32" data-name="CatalystLogo H32" transform="translate(-11.2 -6.4)">
    <path id="Path_624" data-name="Path 624" d="M141.431,769.431a1.9,1.9,0,0,1-1.231-1.846v-4.431a1.794,1.794,0,0,1,.862-1.6l8.862-6.154,5.785,3.692-8,5.785,9.231,5.046v7.631l-15.508-8.123Zm1.354-7.016a2.1,2.1,0,0,0-.862,1.6V766.6a1.964,1.964,0,0,0,.985,1.723l12.431,6.4v-3.815l-8.616-4.677-.738-.369a1.012,1.012,0,0,1-.492-.738.744.744,0,0,1,.369-.738l.615-.492,6.154-4.554-2.831-1.723-7.016,4.8Z" transform="translate(-129 -739.154)" fill="#216fb5"/>
    <path id="Path_625" data-name="Path 625" d="M164.508,756.262a1.894,1.894,0,0,1,1.231,1.846v4.431a1.794,1.794,0,0,1-.862,1.6l-8.862,6.154-5.785-3.692,8-5.785L149,755.031V747.4l15.508,8.862Zm-1.231,6.893a2.1,2.1,0,0,0,.862-1.6V758.97a1.965,1.965,0,0,0-.985-1.723l-12.431-7.139v3.815l8.616,5.416.738.369a1.012,1.012,0,0,1,.492.738.744.744,0,0,1-.369.738l-.615.492-6.154,4.554,2.831,1.723,7.016-4.8Z" transform="translate(-126.539 -741)" fill="#e42a29"/>
  </g>
</svg>
