<?xml version="1.0" encoding="utf-8"?>
<!-- Generator: Adobe Illustrator 21.0.2, SVG Export Plug-In . SVG Version: 6.00 Build 0)  -->
<svg version="1.1" id="Layer_1" xmlns="http://www.w3.org/2000/svg" xmlns:xlink="http://www.w3.org/1999/xlink" x="0px" y="0px"
	 viewBox="0 0 512 512" enable-background="new 0 0 512 512" xml:space="preserve">
<path d="M84.3,172.4c-16.2,0-29.2,13.1-29.2,29.3l0,122.5c0,16.2,13.1,29.3,29.3,29.3c16.2,0,29.3-13.1,29.2-29.3l0-122.5
	C113.6,185.5,100.5,172.3,84.3,172.4 M320.2,62.4l20.4-37.3c1.1-1.9,0.4-4.4-1.6-5.5c-2-1.1-4.5-0.3-5.5,1.6l-20.6,37.7
	c-17.4-7.7-36.8-12.1-57.3-12c-20.5,0-39.9,4.3-57.2,12l-20.6-37.6c-1.1-2-3.5-2.7-5.5-1.6c-2,1.1-2.7,3.6-1.6,5.5l20.4,37.3
	c-40.1,20.7-67.2,60.1-67.2,105.4l263.5,0C387.4,122.4,360.3,83.1,320.2,62.4 M195.7,120c-6.1,0-11-4.9-11-11
	c0-6.1,4.9-11.1,11-11.1c6.1,0,11.1,5,11.1,11.1C206.7,115,201.8,120,195.7,120 M315.6,119.9c-6.1,0-11.1-4.9-11-11
	c0-6.1,5-11,11.1-11.1c6.1,0,11,5,11,11.1C326.7,115,321.7,119.9,315.6,119.9 M124.9,177.9l0,189.8c0,17.3,14,31.2,31.2,31.2l21.3,0
	l0,64.8c0,16.1,13.1,29.3,29.2,29.3c16.2,0,29.3-13.1,29.3-29.3l0-64.8l39.5,0l0,64.8c0,16.1,13.1,29.3,29.2,29.2
	c16.2,0,29.3-13.1,29.3-29.3l0-64.8l21.3,0c17.2,0,31.2-14,31.2-31.2l0-189.8L124.9,177.9z M456.2,201.6c0-16.2-13.1-29.2-29.3-29.2
	c-16.2,0-29.2,13.1-29.2,29.3l0,122.5c0,16.2,13.1,29.2,29.3,29.2c16.2,0,29.2-13.1,29.2-29.3L456.2,201.6z"/>
</svg>
