<?xml version="1.0" encoding="utf-8"?>
<!-- Generator: Adobe Illustrator 21.0.2, SVG Export Plug-In . SVG Version: 6.00 Build 0)  -->
<svg version="1.1" id="Layer_1" xmlns="http://www.w3.org/2000/svg" xmlns:xlink="http://www.w3.org/1999/xlink" x="0px" y="0px"
	 viewBox="0 0 512 512" enable-background="new 0 0 512 512" xml:space="preserve">
<path d="M446.6,178.1c-24.4-30.5-58.7-48.1-91.1-48.1c-42.8,0-60.9,20.3-90.6,20.3c-30.6,0-53.9-20.3-90.9-20.3
	c-36.4,0-75,22.1-99.6,59.8C40,243,45.8,342.9,101.8,428c20,30.4,46.7,64.7,81.7,65c31,0.3,39.8-19.8,82-20
	c42.1-0.2,50.1,20.3,81.1,20c34.9-0.3,63.1-38.2,83.1-68.7c14.3-21.8,19.7-32.8,30.8-57.5C379.6,336.2,366.6,221.9,446.6,178.1z
	 M323.1,96c15.6-20,27.4-48.1,23.1-76.9C320.7,20.8,291,37,273.7,58c-15.7,19.1-28.7,47.5-23.7,75.1
	C277.7,133.9,306.4,117.4,323.1,96z"/>
</svg>
