<?xml version="1.0" encoding="utf-8"?>
<!-- Generator: Adobe Illustrator 21.0.2, SVG Export Plug-In . SVG Version: 6.00 Build 0)  -->
<svg version="1.1" id="Layer_1" xmlns="http://www.w3.org/2000/svg" xmlns:xlink="http://www.w3.org/1999/xlink" x="0px" y="0px"
	 viewBox="0 0 512 512" enable-background="new 0 0 512 512" xml:space="preserve">
<path d="M501.8,97H10.2c-5,0-9,4-9,9v300c0,5,4,9,9,9h491.6c5,0,9-4,9-9V106C510.8,101,506.8,97,501.8,97z M473.9,115L264.2,251.1
	c-7.5,4.9-17.3,4.9-24.8,0L31.1,115H473.9z M492.8,397H19.2V128.7l210.4,137.4c6.8,4.4,14.5,6.6,22.3,6.6c7.7,0,15.4-2.2,22.2-6.6
	l218.8-141.9V397z"/>
</svg>
