<?xml version="1.0" encoding="utf-8"?>
<!-- Generator: Adobe Illustrator 21.0.2, SVG Export Plug-In . SVG Version: 6.00 Build 0)  -->
<svg version="1.1" id="Layer_1" xmlns="http://www.w3.org/2000/svg" xmlns:xlink="http://www.w3.org/1999/xlink" x="0px" y="0px"
	 viewBox="0 0 512 512" enable-background="new 0 0 512 512" xml:space="preserve">
<path d="M370.9,375.8c2.1-4.5,7.5-6.4,12-4.2c3.5,1.7,6.7,3.4,9.6,5.1c7.2-8.5,13-18.3,12.5-30c-0.5-12.6-8-24.5-23-36.6
	c-17.7-14.2-31-20.5-43.4-20.5c-15.4,0-25.3,10.1-34.9,19.8l-3.1,3.2c-0.4,0.4-1.1,0.6-2,0.6c-4.7,0-19.6-4.1-57.6-42.1
	c-27.9-28-37.6-43.6-40.9-51.7c-2.4-6.1-1.2-7.3-0.7-7.9l3.1-3.1c10.2-10,18.7-19.4,19.8-32.8c1.1-12.9-5.1-26.5-20.4-45.6
	c-12.4-15.5-24.8-23-37.9-23c-17.6,0-30.9,14-41.5,25.2c-1.7,1.8-3.5,3.7-5.2,5.4c-13.4,13.4-13.7,40.5-0.9,74.5
	c13.4,35.6,39.9,74.3,74.5,109c26.5,26.5,55.7,48.4,84.4,63.3c25.6,13.3,49.9,20.6,68.7,20.6c13.2,0,23.7-3.5,30.4-10.2
	c1.5-1.5,3.2-3.1,4.8-4.6l0.2-0.2c-1.4-0.7-2.8-1.4-4.3-2.2C370.6,385.7,368.7,380.3,370.9,375.8z M366.8,377.1
	c-1.7,1.6-3.5,3.3-5.1,5c-3.2,3.2-9.5,5-17.7,5c-15.7,0-37.7-6.8-60.4-18.6c-27.1-14.1-54.8-34.9-80-60.1
	c-32.9-32.9-57.9-69.3-70.4-102.6c-11.9-31.5-9.2-49.5-3.2-55.5c1.8-1.8,3.7-3.8,5.5-5.7c8.7-9.2,18.6-19.6,28.5-19.6
	c7.2,0,15.2,5.5,23.9,16.3c12,15,17.1,25.1,16.5,32.9c-0.5,6.6-5.1,12.1-14.5,21.4l-3.1,3.1c-6.7,6.7-7.8,15.9-3.4,27.2
	c5.7,14.4,20.3,33.3,44.9,57.8c42.5,42.5,60.5,47.4,70.3,47.4c5.7,0,10.9-2.1,14.7-5.9l3.2-3.2c9.1-9.2,14.6-14.5,22.1-14.5
	c7.8,0,18.3,5.4,32.1,16.6c10.5,8.5,16,16.3,16.3,23.3c0.4,10.1-10.3,20.3-19.7,29.2L366.8,377.1z"/>
<path d="M435.8,72.7C386.6,24.5,321.4-1.5,252.1-0.5c-67.7,1-131.2,28.1-178.8,76.4C25.7,124.2-0.5,188.2-0.5,256
	c0,68.7,26.6,133.1,74.9,181.4c48.3,48.3,112.7,75,181.3,75.1c0.1,0,0.2,0,0.2,0c37.9,0,72.9-10.2,76.9-11.7
	c21.2-8.2,43.4-21.4,59.4-35.3c21.5-18.7,31-37.9,27.6-55.5c-1.8-9.1-8.1-21.7-27.4-33.3c-2.9-1.7-6.1-3.4-9.6-5.1
	c-4.5-2.1-9.9-0.2-12,4.2c-2.1,4.5-0.2,9.9,4.2,12c1.5,0.7,2.9,1.4,4.3,2.2c17.5,9.4,21.8,18.6,22.8,23.4
	c2.8,14.5-12.4,30.3-21.7,38.5c-14.5,12.6-34.7,24.6-54,32.1c-0.3,0.1-33.1,10.5-70.5,10.5c-0.1,0-0.1,0-0.2,0
	c-63.8-0.1-123.7-24.9-168.6-69.8S17.5,319.8,17.5,256c0-63.1,24.4-122.5,68.7-167.5c44.2-44.9,103.3-70.1,166.2-71
	c64.4-1,125.1,23.2,170.8,68.1c45.7,44.8,71,104.9,71.3,169.3c0.1,32.4-6.1,63.9-18.5,93.5c-1.9,4.6,0.2,9.9,4.8,11.8
	c4.6,1.9,9.9-0.2,11.8-4.8c13.4-31.9,20.1-65.7,20-100.6C512.2,185.6,484.9,120.9,435.8,72.7z"/>
</svg>
