<svg xmlns="http://www.w3.org/2000/svg" viewBox="0 0 512 512"><path d="M425.5 507.6H333c-17.3 0-31.4-14.1-31.4-31.4V355.5c0-1.1-.9-2-2-2h-87.3c-1.1 0-2 .9-2 2v120.7c0 17.3-14.1 31.4-31.4 31.4H86.5c-17.3 0-31.4-14.1-31.4-31.4V291.9h-10c-12.3 0-23.8-6.9-29-18.1-5.5-11.7-3.4-25 5.3-34.5L224.1 17.5l.2-.2c8.1-8.4 19.1-13 30.8-13 12.1 0 24 5.1 32.7 13.9l.3.3 202.6 220.6c8.5 9.3 10.7 22.2 5.6 33.8-5.1 11.6-16.1 18.8-28.8 18.8h-10.6V476c0 17.6-14 31.6-31.4 31.6zm-89.9-32h87.3c1.1 0 2-.9 2-2v-190c0-13.1 10.6-23.7 23.7-23.7h13c1.7 0 2.7-2.1 1.5-3.4l-198.4-216c-2.6-2.6-6.1-4.1-9.6-4.1-2.1 0-5.1.6-7.8 3.2l-198.5 217c-1.2 1.3-.3 3.3 1.5 3.3h13c13.1 0 23.7 10.6 23.7 23.7v190.1c0 1.1.9 2 2 2h87.3c1.1 0 2-.9 2-2V352.9c0-17.3 14.1-31.4 31.4-31.4h92.5c17.3 0 31.4 14.1 31.4 31.4v120.7c0 1.1.9 2 2 2z"/></svg>