<?xml version="1.0" encoding="utf-8"?>
<!-- Generator: Adobe Illustrator 21.0.2, SVG Export Plug-In . SVG Version: 6.00 Build 0)  -->
<svg version="1.1" id="Layer_1" xmlns="http://www.w3.org/2000/svg" xmlns:xlink="http://www.w3.org/1999/xlink" x="0px" y="0px"
	 viewBox="0 0 512 512" style="enable-background:new 0 0 512 512;" xml:space="preserve">
<path style="fill:#D6D6D6;" d="M377.6,380.6c-4.1-6.3-6.7-12.2-8.5-16.9l-1,0.6c-7.9,7.8-18,16.2-30.5,23.8c-11.4,7-22.4,11.8-32.2,15.3
	l-1,0.6c3.5,3.4,8.3,8.6,12.5,15.8c1.6,2.8,3,5.6,4,8.1c1,2.4,3,4.3,5.4,5c0,0,0.1,0,0.1,0c5.8,1.8,18.5,0.4,35-9.9
	c15.7-9.8,23-20.4,24.1-27c0-0.1,0-0.1,0-0.2c0.4-2.5-0.4-5-2-7C381.7,386.4,379.6,383.7,377.6,380.6z"/>
<path style="fill:#FFB300;" d="M368.2,364.2c3.8-3.8,7.2-7.4,10-10.7c2.7-3.2,3.1-7.8,0.9-11.4l-6.3-10.2c-9.1-14.6-11.8-32.2-7.8-48.8
	c6.8-28,2.7-58.7-14.1-85c-32-50.3-99-66-149.9-35.2c-52.7,31.9-69,100.6-36.6,152.7c16.2,26,41.6,42.9,69.3,49.1
	c16.8,3.8,31.6,13.8,40.7,28.5l6.4,10.2c2.2,3.6,6.5,5.3,10.6,4.3c4.3-1.1,9-2.5,14.1-4.3c9.8-3.4,20.8-8.3,32.2-15.3
	C350.1,380.4,360.2,372,368.2,364.2z M228.6,206.9c-8.1,8.6-14.6,23.3-17.2,39.1c-3.1,18.2-0.8,36.5,6.3,51.5c2.4,5,0.3,11-4.7,13.3
	c-1.4,0.7-2.8,1-4.3,1c-3.7,0-7.3-2.1-9-5.7c-19-40-7.3-89.7,14.4-112.8c3.8-4,10.1-4.2,14.1-0.4
	C232.2,196.5,232.4,202.9,228.6,206.9z"/>
<path style="fill:#FFFFFF;" d="M214.1,193.2c-21.7,23.1-33.4,72.9-14.4,112.8c1.7,3.6,5.3,5.7,9,5.7c1.4,0,2.9-0.3,4.3-1
	c5-2.4,7.1-8.3,4.7-13.3c-7.1-15-9.3-33.2-6.3-51.5c2.7-15.8,9.1-30.4,17.2-39.1c3.8-4,3.6-10.4-0.4-14.1
	C224.2,189,217.8,189.2,214.1,193.2z"/>
<path style="fill:#FFCA61;" d="M112.6,227.2c2.3,0,4.3-1.6,4.9-3.9c0.6-2.7-1.1-5.4-3.7-6l-33.5-7.8c-2.7-0.6-5.4,1.1-6,3.7
	c-0.6,2.7,1.1,5.4,3.7,6l33.5,7.8C111.9,227.2,112.3,227.2,112.6,227.2z"/>
<path style="fill:#FFCA61;" d="M123.8,320l-29.2,18.2c-2.3,1.5-3.1,4.5-1.6,6.9c0.9,1.5,2.6,2.4,4.2,2.4c0.9,0,1.8-0.2,2.6-0.8l29.2-18.2
	c2.3-1.5,3.1-4.5,1.6-6.9S126.1,318.6,123.8,320z"/>
<path style="fill:#FFCA61;" d="M178,140c0.9,1.5,2.6,2.4,4.2,2.4c0.9,0,1.8-0.2,2.6-0.8c0.1,0,0.1-0.1,0.2-0.2c0.1-0.1,0.2-0.1,0.3-0.2
	c2.3-1.5,3.1-4.5,1.6-6.9l-18.2-29.2c-1.5-2.3-4.5-3.1-6.9-1.6c-0.1,0.1-0.2,0.1-0.3,0.2c-0.1,0.1-0.2,0.1-0.3,0.1
	c-2.3,1.5-3.1,4.5-1.6,6.9L178,140z"/>
<path style="fill:#FFCA61;" d="M288.5,116.8c0.4,0.1,0.8,0.1,1.1,0.1c2.3,0,4.3-1.6,4.9-3.9l7.8-33.5c0.6-2.7-1.1-5.4-3.7-6
	c-2.7-0.6-5.4,1.1-6,3.7l-7.8,33.5C284.2,113.4,285.8,116.1,288.5,116.8z"/>
<path style="fill:#FFCA61;" d="M198.6,381.3c-2.7-0.6-5.4,1.1-6,3.7l-7.8,33.5c-0.6,2.7,1.1,5.4,3.7,6c0.4,0.1,0.8,0.1,1.1,0.1
	c2.3,0,4.3-1.6,4.9-3.9l7.8-33.5C203,384.7,201.3,382,198.6,381.3z"/>
<path style="fill:#FFCA61;" d="M434,263.2l-33.5-7.8c-2.7-0.6-5.4,1.1-6,3.7c-0.6,2.7,1.1,5.4,3.7,6l33.5,7.8c0.4,0.1,0.8,0.1,1.1,0.1
	c2.3,0,4.3-1.6,4.9-3.9C438.4,266.6,436.7,263.9,434,263.2z"/>
<path style="fill:#FFCA61;" d="M375.2,174.2c0.9,0,1.8-0.2,2.6-0.8l29.2-18.2c2.3-1.5,3.1-4.5,1.6-6.9c-1.5-2.3-4.5-3.1-6.9-1.6l-29.2,18.2
	c-2.3,1.5-3.1,4.5-1.6,6.9C371.9,173.4,373.5,174.2,375.2,174.2z"/>
</svg>
