<svg xmlns="http://www.w3.org/2000/svg" viewBox="0 0 512 512"><path fill="#31CAFF" d="M8 415.4c-2.3 0-4.3-1.6-4.9-3.9-.6-2.7 1-5.4 3.7-6L77.7 389c2.7-.6 5.4 1 6 3.7.6 2.7-1 5.4-3.7 6L9.1 415.3c-.3.1-.7.1-1.1.1zm427.7-326c-2.3 0-4.3-1.6-4.9-3.9-.6-2.7 1-5.4 3.7-6l20.6-4.8c2.7-.6 5.4 1 6 3.7.6 2.7-1 5.4-3.7 6l-20.6 4.8c-.3.2-.7.2-1.1.2zM326.3 318.1c-1.8-9.7 4.6-18.9 14.3-20.7l101.6-18.5-39-213.6c-1.2-6.4-7.4-10.7-13.8-9.5L68.3 114.2c-6.4 1.2-10.7 7.4-9.5 13.8l58.6 321.1c1.2 6.4 7.4 10.7 13.8 9.5l213.6-39 62.7-90.7-62.7 90.7-18.5-101.5zm-142.9-98.6c-2.4 0-4.5-1.7-4.9-4.1-.5-2.7 1.3-5.3 4-5.8l133.8-24.4c2.7-.5 5.3 1.3 5.8 4s-1.3 5.3-4 5.8l-133.8 24.4c-.3 0-.6.1-.9.1zm12.7 69.7c-2.4 0-4.5-1.7-4.9-4.1-.5-2.7 1.3-5.3 4-5.8L329 254.8c2.7-.5 5.3 1.3 5.8 4s-1.3 5.3-4 5.8L197 289.1c-.3 0-.6.1-.9.1z"/><path fill="#50DEFF" d="M442.2 278.8L407.5 329l34.7-50.2zm-101.6 18.6c-9.7 1.8-16.1 11-14.3 20.7l18.5 101.6 62.7-90.7 34.7-50.2-101.6 18.6z"/><path fill="#31CAFF" d="M446 148.2c-2.4 0-4.5-1.7-4.9-4.1-.5-2.7 1.3-5.3 4-5.8l58-10.6c2.7-.5 5.3 1.3 5.8 4s-1.3 5.3-4 5.8l-58 10.6c-.3.1-.6.1-.9.1z"/><circle fill="#1EB7E0" cx="234.2" cy="108.8" r="2.6"/><ellipse transform="rotate(-44.365 254.905 87.322)" fill="#1EB7E0" cx="254.9" cy="87.3" rx="10.2" ry="20.4"/><path fill="#50DEFF" d="M249.2 90.3c-.1 0-.3-.1-.4-.2-2.3-2.4-4.1-5.1-4.9-7.7-.9-2.7-.6-4.8.7-6.1.2-.2.5-.2.7 0 .2.2.2.5 0 .7-1 1-1.2 2.8-.5 5.1.8 2.4 2.4 5 4.7 7.3.2.2.2.5 0 .7-.1.2-.2.2-.3.2zM273.9 54c4.9 5 9.8 10.1 14.8 15.1-2.8 1.9-5.8 4.4-8.9 7.5-5.5 5.5-9.2 11.2-11.6 16-1.2 2.3-3.8 3.4-6.2 2.5-2.6-.9-5.7-2.6-8.6-5.4-2.7-2.7-4.4-5.6-5.4-7.9-.9-2.2-.2-4.7 1.8-6.1 5-3.5 10.4-7.8 15.8-12.9 3-3 5.8-6 8.3-8.8z"/><ellipse transform="rotate(-44.365 281.254 61.556)" fill="#31CAFF" cx="281.3" cy="61.5" rx="5.3" ry="10.6"/><path fill="#1EB7E0" d="M283.5 59.8c-.1 0-.3-.1-.4-.2-2.4-2.5-5.1-3.2-6-2.3-.2.2-.5.2-.7 0-.2-.2-.2-.5 0-.7 1.5-1.4 4.7-.4 7.4 2.3.2.2.2.5 0 .7 0 .2-.1.2-.3.2zm-49.638 48.657l16.218-17.282.729.684-16.218 17.282z"/></svg>