<svg xmlns="http://www.w3.org/2000/svg" viewBox="0 0 512 512"><path fill="#B2A424" d="M240.8 169.7c-3.1-3.2-8.1-3.2-11.3-.2l-11.4 11.1-24.1 23.5-14.6-12.5c-3.4-2.9-8.4-2.5-11.3.9-2.9 3.4-2.5 8.4.9 11.3l20.2 17.2c1.5 1.3 3.3 1.9 5.2 1.9 2 0 4-.8 5.6-2.3l18.9-18.4 21.8-21.2c3.1-3.1 3.2-8.2.1-11.3z"/><path fill="#E2D632" d="M365.6 91.5h-65.3c-1.6-22.6-20.4-40.4-43.4-40.4s-41.8 17.8-43.4 40.4H148c-24.8 0-44.8 20.1-44.8 44.8v284.8c0 24.8 20.1 44.8 44.8 44.8h217.6c24.8 0 44.8-20.1 44.8-44.8V136.3c.1-24.7-20-44.8-44.8-44.8zM218.9 374.6c0 6.6-5.3 11.8-11.7 11.8h-33.9c-6.5 0-11.7-5.3-11.7-11.7v-34c0-6.4 5.2-11.7 11.7-11.7h33.9c6.4 0 11.7 5.2 11.7 11.7v33.9zm-.1-76.7c-.2 2.3-1.1 4.4-2.5 6.1l-.1.1c-.1.2-.3.3-.5.5l-.3.3-.3.3-.5.5-.1.1c-1.7 1.4-3.8 2.3-6.1 2.5-.4 0-.8.1-1.2.1h-33.9c-.4 0-.8 0-1.2-.1-2.3-.2-4.4-1.1-6.1-2.5l-.1-.1c-.2-.2-.4-.3-.5-.5l-.3-.3-.3-.3-.5-.5-.1-.1c-1.4-1.7-2.3-3.8-2.5-6.1 0-.4-.1-.8-.1-1.2v-33.9c0-.4 0-.8.1-1.2.2-2.3 1.1-4.4 2.5-6.1l.1-.1c.2-.2.3-.4.5-.5l.3-.3.3-.3.5-.5.1-.1c1.7-1.4 3.8-2.3 6.1-2.5.4 0 .8-.1 1.2-.1h33.9c6.5 0 11.7 5.2 11.7 11.7v33.9c0 .4 0 .8-.1 1.2zM240.7 181l-21.8 21.2v16.6c0 .4 0 .8-.1 1.2-.2 2.3-1.1 4.4-2.5 6.1l-.1.1c-.1.2-.3.3-.5.5l-.3.3-.3.3-.5.5-.1.1c-1.7 1.4-3.8 2.3-6.1 2.5-.4 0-.8.1-1.2.1h-33.9c-.4 0-.8 0-1.2-.1-2.3-.2-4.4-1.1-6.1-2.5l-.1-.1c-.2-.1-.4-.3-.5-.5l-.3-.3-.3-.3-.5-.5-.1-.1c-1.4-1.7-2.3-3.8-2.5-6.1v-.9V184.9c0-.4 0-.8.1-1.2.2-2.3 1.1-4.4 2.5-6.1l.1-.1c.1-.2.3-.4.5-.5l.3-.3.3-.3.5-.5.1-.1c1.7-1.4 3.8-2.3 6.1-2.5.4 0 .8-.1 1.2-.1h33.9c5 0 9.2 3 10.9 7.4l11.4-11.1c3.2-3.1 8.2-3 11.3.2 3 3.1 2.9 8.2-.2 11.3zm88.5 113.7h-70.6c-8.3 0-15-6.7-15-15s6.7-15 15-15h70.6c8.3 0 15 6.7 15 15s-6.7 15-15 15zm0-77.9h-70.6c-8.3 0-15-6.7-15-15s6.7-15 15-15h70.6c8.3 0 15 6.7 15 15s-6.7 15-15 15zM82.9 196.7H39.4c-4.4 0-8-3.6-8-8s3.6-8 8-8h43.5c4.4 0 8 3.6 8 8s-3.5 8-8 8zM472.6 359.9h-43.5c-4.4 0-8-3.6-8-8s3.6-8 8-8h43.5c4.4 0 8 3.6 8 8s-3.6 8-8 8zM472.6 218.3h-43.5c-4.4 0-8-3.6-8-8s3.6-8 8-8h43.5c4.4 0 8 3.6 8 8s-3.6 8-8 8z"/></svg>