<svg xmlns="http://www.w3.org/2000/svg" viewBox="0 0 512 512"><path d="M416 124V16c0-8.8-7.2-16-16-16H112c-8.8 0-16 7.2-16 16v108c0 2.2-1.8 4-4 4H16c-8.8 0-16 7.2-16 16v224c0 8.8 7.2 16 16 16h76c2.2 0 4 1.8 4 4l.4 108.6c0 8.8 7.2 15.9 16 15.9h288.1c8.8 0 16-7.2 16-16v-108c0-2.2 1.8-4 4-4l75.6-.4c8.8 0 15.9-7.2 15.9-16V144c0-8.8-7.2-16-16-16h-76c-2.2 0-4-1.8-4-4zM132 32h248c2.2 0 4 1.8 4 4v88c0 2.2-1.8 4-4 4H132c-2.2 0-4-1.8-4-4V36c0-2.2 1.8-4 4-4zm248.5 448.5h-248c-2.2 0-4-1.8-4-4v-152c0-2.2 1.8-4 4-4h248c2.2 0 4 1.8 4 4v152c0 2.2-1.8 4-4 4zm96-128.5H420c-2.2 0-4-1.8-4-4v-44c0-8.8-7.2-16-16-16H112c-8.8 0-16 7.2-16 16v44c0 2.2-1.8 4-4 4H36c-2.2 0-4-1.8-4-4V164c0-2.2 1.8-4 4-4l440.5.5c2.2 0 4 1.8 4 4V348c0 2.2-1.8 4-4 4z"/><path d="M400.3 192.5h32.3c8.7 0 15.8 7.1 15.8 15.8v.3c0 8.7-7.1 15.8-15.8 15.8h-32.3c-8.7 0-15.8-7.1-15.8-15.8v-.3c0-8.7 7.1-15.8 15.8-15.8zM176.3 352.5h128.3c8.7 0 15.8 7.1 15.8 15.8v.3c0 8.7-7.1 15.8-15.8 15.8H176.3c-8.7 0-15.8-7.1-15.8-15.8v-.3c0-8.7 7.1-15.8 15.8-15.8zM176.3 416.5h64.3c8.7 0 15.8 7.1 15.8 15.8v.3c0 8.7-7.1 15.8-15.8 15.8h-64.3c-8.7 0-15.8-7.1-15.8-15.8v-.3c0-8.7 7.1-15.8 15.8-15.8z"/></svg>