<?xml version="1.0" encoding="utf-8"?>
<!-- Generator: Adobe Illustrator 21.0.2, SVG Export Plug-In . SVG Version: 6.00 Build 0)  -->
<svg version="1.1" id="Layer_1" xmlns="http://www.w3.org/2000/svg" xmlns:xlink="http://www.w3.org/1999/xlink" x="0px" y="0px"
	 viewBox="0 0 512 512" style="enable-background:new 0 0 512 512;" xml:space="preserve">
<path style="fill:#6AB76D;" d="M321.2,115.2C235.6,97.4,151.8,152.5,134,238.1c-17.8,85.6,37.3,169.4,122.9,187.2
	C342.5,443,426.3,388,444.1,302.4C461.9,216.8,406.8,132.9,321.2,115.2z M329.1,281l-86,82.2l37.6-69.3l-34.3-7.1l62.2-98.5
	l52.7,10.9l-67.8,74.3L329.1,281z"/>
<polygon style="fill:#FFFFFF;" points="308.6,188.3 246.4,286.8 280.7,293.9 243.1,363.2 329.1,281 293.5,273.6 361.3,199.3 "/>
<path style="fill:#6AB76D;" d="M132.1,93.3l60.9,12.6c0.3,0.1,0.7,0.1,1,0.1c2.3,0,4.4-1.6,4.9-4c0.6-2.7-1.2-5.4-3.9-5.9l-60.9-12.6
	c-2.7-0.6-5.4,1.2-5.9,3.9C127.6,90.1,129.4,92.7,132.1,93.3z"/>
<path style="fill:#6AB76D;" d="M104.1,119.4L165,132c0.3,0.1,0.7,0.1,1,0.1c2.3,0,4.4-1.6,4.9-4c0.6-2.7-1.2-5.4-3.9-5.9l-60.9-12.6
	c-2.7-0.6-5.4,1.2-5.9,3.9C99.7,116.2,101.4,118.8,104.1,119.4z"/>
<path style="fill:#6AB76D;" d="M135.4,152.7c0.6-2.7-1.2-5.4-3.9-5.9l-60.9-12.6c-2.7-0.6-5.4,1.2-5.9,3.9c-0.6,2.7,1.2,5.4,3.9,5.9l60.9,12.6
	c0.3,0.1,0.7,0.1,1,0.1C132.8,156.6,134.9,155,135.4,152.7z"/>
</svg>
