<?xml version="1.0" encoding="utf-8"?>
<!-- Generator: Adobe Illustrator 21.0.2, SVG Export Plug-In . SVG Version: 6.00 Build 0)  -->
<svg version="1.1" id="Layer_1" xmlns="http://www.w3.org/2000/svg" xmlns:xlink="http://www.w3.org/1999/xlink" x="0px" y="0px"
	 viewBox="0 0 512 512" style="enable-background:new 0 0 512 512;" xml:space="preserve">
<path style="fill:#816EE0;" d="M291.7,128.3c1.4-7.2-3.3-14.1-10.5-15.5c-7.2-1.4-14.1,3.3-15.5,10.5l0,0.2l26,5L291.7,128.3z"/>
<path style="fill:#9578F9;" d="M405.6,150.5l-113.9-22l-26-5l-113.9-22c-18.1-3.5-35.5,8.3-39,26.4L80,297.4c-3.5,18.1,8.3,35.5,26.4,39
	l112.2,21.7l-64.3,74.2c-1.8,2.1-1.6,5.2,0.5,7.1c0.9,0.8,2.1,1.2,3.3,1.2c1.4,0,2.8-0.6,3.8-1.7l68.1-78.5l7.1,1.4l33.7,97.5
	c0.7,2.1,2.7,3.4,4.7,3.4c0.5,0,1.1-0.1,1.6-0.3c2.6-0.9,4-3.7,3.1-6.4l-31.8-92.1l111.8,21.6c18.1,3.5,35.5-8.3,39-26.4L432,189.5
	C435.5,171.4,423.6,154,405.6,150.5z M331.3,265.1l-9.3,48c-0.9,4.8-5.1,8.1-9.8,8.1c-0.6,0-1.3-0.1-1.9-0.2c-5.4-1-9-6.3-7.9-11.7
	l7.4-38.1L186,247.2c-2.6-0.5-4.9-2-6.4-4.2s-2-4.9-1.5-7.5l10.4-53.7c1-5.4,6.3-9,11.7-7.9c5.4,1,9,6.3,7.9,11.7l-8.5,43.8
	l123.7,23.9c2.6,0.5,4.9,2,6.4,4.2C331.2,259.8,331.8,262.5,331.3,265.1z"/>
<path style="fill:#FFFFFF;" d="M323.4,253.4l-123.7-23.9l8.5-43.8c1-5.4-2.5-10.7-7.9-11.7c-5.4-1-10.7,2.5-11.7,7.9l-10.4,53.7
	c-0.5,2.6,0,5.3,1.5,7.5s3.8,3.7,6.4,4.2l123.7,23.9l-7.4,38.1c-1,5.4,2.5,10.7,7.9,11.7c0.6,0.1,1.3,0.2,1.9,0.2
	c4.7,0,8.9-3.3,9.8-8.1l9.3-48c0.5-2.6,0-5.3-1.5-7.5C328.3,255.4,326,253.9,323.4,253.4z"/>
<path style="fill:#9578F9;" d="M84.6,101.8c0.3,0.1,0.6,0.1,1,0.1c2.3,0,4.4-1.7,4.9-4.1l7.3-37.6l43.2,8.3c2.7,0.5,5.3-1.2,5.9-4
	c0.5-2.7-1.2-5.3-4-5.9l-48.1-9.3c-2.7-0.5-5.3,1.2-5.9,4l-8.2,42.5C80.1,98.7,81.9,101.3,84.6,101.8z"/>
<path style="fill:#9578F9;" d="M425.9,378.8c-2.7-0.5-5.3,1.2-5.9,4l-7.3,37.6l-43.2-8.3c-2.7-0.5-5.3,1.2-5.9,4c-0.5,2.7,1.2,5.3,4,5.9
	l48.1,9.3c0.3,0.1,0.6,0.1,1,0.1c2.3,0,4.4-1.7,4.9-4.1l8.2-42.5C430.4,381.9,428.6,379.3,425.9,378.8z"/>
</svg>
