<?xml version="1.0" encoding="utf-8"?>
<!-- Generator: Adobe Illustrator 21.0.2, SVG Export Plug-In . SVG Version: 6.00 Build 0)  -->
<svg version="1.1" id="Layer_1" xmlns="http://www.w3.org/2000/svg" xmlns:xlink="http://www.w3.org/1999/xlink" x="0px" y="0px"
	 viewBox="0 0 512 512" style="enable-background:new 0 0 512 512;" xml:space="preserve">
<path style="fill:#FF6884;" d="M421,343.9L235.1,144.2c-16.9-18.1-47-11.2-54.3,12.5l-80,260.8c-7.3,23.7,13.8,46.3,38,40.8l265.9-61.1
	C428.8,391.6,437.9,362,421,343.9z M206.3,238.6c-3.1-13.5,2.3-21.9,16.2-25.1c14.2-3.3,22.6,1.2,25.4,13.3
	c0.9,3.8,1.6,8.8,2.2,14.9l8,88.9c0.4,4.1-2.3,8-6.3,8.9c-0.1,0-0.1,0-0.2,0c0,0-0.1,0-0.1,0c-4,0.9-8-1.5-9.5-5.3l-31.4-82.6
	C208.4,245.8,207,241.5,206.3,238.6z M281,390.6c-3.7,5.8-8.8,9.4-15.3,10.9c-6.6,1.5-12.7,0.5-18.5-3.1c-5.8-3.6-9.5-8.7-11-15.4
	c-1.5-6.5-0.5-12.7,3.1-18.5c3.6-5.8,8.7-9.5,15.4-11c6.6-1.5,12.8-0.5,18.6,3.2c5.8,3.7,9.4,8.8,10.9,15.3
	C285.7,378.6,284.6,384.8,281,390.6z"/>
<path style="fill:#FFFFFF;" d="M251.5,339.6c0,0,0.1,0,0.1,0c0.1,0,0.1,0,0.2,0c4-1,6.7-4.8,6.3-8.9l-8-88.9c-0.6-6.1-1.3-11.1-2.2-14.9
	c-2.8-12.1-11.3-16.6-25.4-13.3c-13.9,3.2-19.3,11.6-16.2,25.1c0.7,2.8,2.1,7.2,4.3,13.1l31.4,82.6
	C243.5,338.2,247.5,340.5,251.5,339.6z"/>
<path style="fill:#FFFFFF;" d="M273.3,356.7c-5.8-3.7-12-4.7-18.6-3.2c-6.6,1.5-11.8,5.2-15.4,11c-3.6,5.8-4.7,12-3.1,18.5
	c1.5,6.6,5.2,11.8,11,15.4c5.8,3.6,12,4.7,18.5,3.1c6.5-1.5,11.7-5.1,15.3-10.9c3.7-5.8,4.7-12,3.2-18.6
	C282.7,365.4,279,360.3,273.3,356.7z"/>
<path style="fill:#FF6884;" d="M275.3,95.9c-7.8-4.9-16.4-8.6-25.4-11c-2.7-0.7-5.4,0.9-6.1,3.6c-0.7,2.7,0.9,5.4,3.6,6.1
	c8.1,2.1,15.7,5.4,22.7,9.8c6.9,4.4,13.2,9.8,18.7,16.1c1,1.1,2.4,1.7,3.8,1.7c1.2,0,2.3-0.4,3.3-1.2c2.1-1.8,2.3-5,0.5-7.1
	C290.1,106.9,283.1,100.8,275.3,95.9z"/>
<path style="fill:#FF6884;" d="M246.2,57.8c14.9,3.9,28.9,10,41.7,18c12.8,8,24.3,18,34.4,29.6c1,1.1,2.4,1.7,3.8,1.7c1.2,0,2.3-0.4,3.3-1.2
	c2.1-1.8,2.3-5,0.5-7.1c-10.7-12.4-23-23-36.6-31.6c-13.6-8.6-28.6-15-44.5-19.2c-2.7-0.7-5.4,0.9-6.1,3.6
	C241.9,54.3,243.5,57.1,246.2,57.8z"/>
<path style="fill:#FF6884;" d="M114.4,155.7c-0.7,2.7,0.9,5.4,3.6,6.1c0.4,0.1,0.9,0.2,1.3,0.2c2.2,0,4.2-1.5,4.8-3.7
	c2.1-8.1,5.4-15.7,9.8-22.7c4.4-7,9.8-13.3,16.1-18.7c2.1-1.8,2.3-5,0.5-7.1c-1.8-2.1-5-2.3-7.1-0.5c-7.1,6.1-13.2,13.2-18.1,21
	C120.5,138.2,116.8,146.7,114.4,155.7z"/>
<path style="fill:#FF6884;" d="M134.9,83.3c2.1-1.8,2.3-5,0.5-7.1c-1.8-2.1-5-2.3-7.1-0.5c-12.4,10.7-23.1,23.1-31.6,36.7
	c-8.5,13.6-15,28.6-19.2,44.4c-0.7,2.7,0.9,5.4,3.6,6.1c0.4,0.1,0.9,0.2,1.3,0.2c2.2,0,4.2-1.5,4.8-3.7c3.9-14.9,10-28.9,18-41.7
	C113.2,105,123.2,93.4,134.9,83.3z"/>
</svg>
