<?xml version="1.0" encoding="utf-8"?>
<!-- Generator: Adobe Illustrator 21.0.2, SVG Export Plug-In . SVG Version: 6.00 Build 0)  -->
<svg version="1.1" id="Layer_1" xmlns="http://www.w3.org/2000/svg" xmlns:xlink="http://www.w3.org/1999/xlink" x="0px" y="0px"
	 viewBox="0 0 512 512" enable-background="new 0 0 512 512" xml:space="preserve">
<path fill="#fff" d="M479.1,207.8h-64.4c-8.8,0-16,7.2-16,16v8.4c-8.3-2-17.1-5.2-25.7-10.4c-18.7-11.4-17.8-22.4-45.3-53.1
	c-29.1-32.5-39.2-35.3-53.2-60.4c-11.6-20.8-15.1-37.7-16.4-45c-2.5-14.2-2.2-26.5-1.4-35.6c0.1-1.6-0.9-3-2.4-3.2
	c-5.5-1-13.4-1.6-22.1,0.6c-24.5,6.1-36,28.6-38.2,33.2c-13.7,28.4-3.8,58.3,2.2,76.4c7.4,22.3,18.4,38.4,25.9,47.8
	c-15.4-0.9-37.5-2-64.1-2.4c-98.2-1.4-114.2,8.9-122.5,19.2c-15.1,18.8-10.2,44.6-9.9,45.8c4.9,23.7,23.6,36,27.5,38.4
	c-1.6,1.8-17.5,21-11.3,46.2c5.3,21.3,22.6,31.1,25.5,32.7c-1.5,2.2-12.1,17.8-6.7,37.9c5.5,20.5,23.1,28.8,25.4,29.9
	c-2.8,13.1-4.4,31.8,6.1,45.1c12.3,15.7,36,16.8,95,11.2c55.5-5.2,87.8-7.2,137.7-19.2c20.1-4.8,45.2-11.7,73.9-21.6
	c0.2,8.7,7.3,15.6,16,15.6h64.4c8.8,0,16-7.2,16-16V223.8C495.1,215,488,207.8,479.1,207.8z M461.1,429.4h-28.4c-1.1,0-2-0.9-2-2
	V241.8c0-1.1,0.9-2,2-2h28.4c1.1,0,2,0.9,2,2v185.5C463.1,428.5,462.2,429.4,461.1,429.4z"/>
</svg>
